# xmcd
#
# Track frame offsets: 
#        150
#        63225
#        97112
#        144974
#        203249
#        258249
#        288524
#        294838
#        310775
#
# Disc length: 4212 seconds
#
# Revision: 1
# Processed by: cddbd v1.5.2PL0 Copyright (c) Steve Scherf et al.
# Submitted via: ExactAudioCopy v0.99pb5
#
DISCID=81107209
DTITLE=George Gershwin - The Best
DYEAR=1900
DGENRE=Jazz
TTITLE0=Rhapsody in Blue
TTITLE1=An American in Paris - I. Allegretto grazioso
TTITLE2=An American in Paris - II. Andante ma con ritmo deciso
TTITLE3=Piano Concerto in F major - I. Allegro
TTITLE4=Piano Concerto in F major - II. Adagio
TTITLE5=Piano Concerto in F major - III. Allegro agitato
TTITLE6=Preludes for Piano Solo - I. Allegro ben ritmato e deciso
TTITLE7=Preludes for Piano Solo - II. Andante con moto e poco rubato
TTITLE8=Preludes for Piano Solo - III. Allegro ben ritmato e deciso
EXTD=
EXTT0=
EXTT1=
EXTT2=
EXTT3=
EXTT4=
EXTT5=
EXTT6=
EXTT7=
EXTT8=
PLAYORDER=
